<?xml version="1.0" encoding="UTF-8"?>
<!DOCTYPE svg PUBLIC "-//W3C//DTD SVG 1.1//EN" "http://www.w3.org/Graphics/SVG/1.1/DTD/svg11.dtd">
<!-- Creator: CorelDRAW 2017 -->
<svg xmlns="http://www.w3.org/2000/svg" xml:space="preserve" width="210mm" height="297mm" version="1.1" style="shape-rendering:geometricPrecision; text-rendering:geometricPrecision; image-rendering:optimizeQuality; fill-rule:evenodd; clip-rule:evenodd"
viewBox="0 0 21000 29700"
 xmlns:xlink="http://www.w3.org/1999/xlink">
 <defs>
  <style type="text/css">
   <![CDATA[
    .str1 {stroke:#003399;stroke-width:16.93}
    .str0 {stroke:#1A1A1A;stroke-width:16.93}
    .str4 {stroke:#37496E;stroke-width:211.67}
    .str5 {stroke:#6699FF;stroke-width:211.67}
    .str6 {stroke:#6699FF;stroke-width:211.67}
    .str3 {stroke:white;stroke-width:211.67}
    .str2 {stroke:#6699FF;stroke-width:7.62}
    .fil4 {fill:none}
    .fil2 {fill:#003399}
    .fil1 {fill:#1A1A1A}
    .fil7 {fill:#333333}
    .fil0 {fill:#336699}
    .fil5 {fill:#37496E}
    .fil3 {fill:#6699FF}
    .fil6 {fill:white}
    .fil10 {fill:#1A1A1A;fill-rule:nonzero}
    .fil9 {fill:#336699;fill-rule:nonzero}
    .fil8 {fill:url(#id0)}
   ]]>
  </style>
  <radialGradient id="id0" gradientUnits="userSpaceOnUse" gradientTransform="matrix(0.0866566 1.08321 -1.03988 0.0902675 13748 -8185)" cx="10739" cy="3789" r="609" fx="10739" fy="3789">
   <stop offset="0" style="stop-opacity:1; stop-color:yellow"/>
   <stop offset="0.690196" style="stop-opacity:1; stop-color:#F8EE32"/>
   <stop offset="1" style="stop-opacity:1; stop-color:#F2DD64"/>
  </radialGradient>
 </defs>
 <g id="Camada_x0020_1">
  <metadata id="CorelCorpID_0Corel-Layer"/>
  <path class="fil0" d="M17960 14789l0 -3682 191 0c573,0 1042,469 1042,1042l0 1598c0,573 -469,1042 -1042,1042l-191 0z"/>
  <path class="fil0" d="M3518 14789l0 -3682 -191 0c-573,0 -1042,469 -1042,1042l0 1598c0,573 469,1042 1042,1042l191 0z"/>
  <rect class="fil1 str0" x="3518" y="12341" width="14442" height="10145" rx="3469" ry="2664"/>
  <rect class="fil2 str1" x="3518" y="8045" width="14442" height="9394" rx="3209" ry="2650"/>
  <path class="fil3 str2" d="M11304 13732c0,1450 1176,2626 2626,2626 1450,0 2626,-1176 2626,-2626 0,-1450 -1176,-2626 -2626,-2626 -1450,0 -2626,1176 -2626,2626zm2626 1313c-725,0 -1313,-588 -1313,-1313 0,-725 588,-1313 1313,-1313 725,0 1313,588 1313,1313 0,725 -588,1313 -1313,1313z"/>
  <path class="fil3 str2" d="M7460 16358c1450,0 2626,-1176 2626,-2626 0,-1450 -1176,-2626 -2626,-2626 -1450,0 -2626,1176 -2626,2626 0,1450 1176,2626 2626,2626zm1313 -2626c0,725 -588,1313 -1313,1313 -725,0 -1313,-588 -1313,-1313 0,-725 588,-1313 1313,-1313 725,0 1313,588 1313,1313z"/>
  <circle class="fil4 str3" cx="7460" cy="13732" r="2626"/>
  <circle class="fil5 str4" cx="7460" cy="13732" r="1313"/>
  <circle class="fil6 str5" cx="7460" cy="13732" r="656"/>
  <line class="fil4 str3" x1="10086" y1="13732" x2="11304" y2= "13732" />
  <circle class="fil4 str3" cx="13930" cy="13732" r="2626"/>
  <circle class="fil5 str4" cx="13930" cy="13732" r="1313"/>
  <circle class="fil6 str6" cx="13930" cy="13732" r="656"/>
  <path class="fil3 str2" d="M13273 13732c0,363 294,656 656,656 363,0 656,-294 656,-656 0,-363 -294,-656 -656,-656 -363,0 -656,294 -656,656z"/>
  <path class="fil3 str2" d="M8116 13732c0,-363 -294,-656 -656,-656 -363,0 -656,294 -656,656 0,363 294,656 656,656 363,0 656,-294 656,-656z"/>
  <path class="fil4 str3" d="M13691 18764c0,1324 -1322,2397 -2953,2397 -1565,0 -2845,-988 -2946,-2238 -4,-53 -6,-106 -6,-159"/>
  <polygon class="fil7" points="12708,8039 8769,8039 8769,7251 10476,7251 10476,3789 11001,3789 11001,7251 12708,7251 "/>
  <circle class="fil8" cx="10739" cy="3789" r="985"/>
  <path class="fil9" d="M6228 24597c176,0 316,52 420,156 104,104 156,259 156,467l0 805 -408 0 0 -742c0,-112 -23,-195 -69,-250 -46,-55 -112,-82 -197,-82 -96,0 -172,31 -227,93 -56,62 -84,154 -84,276l0 706 -408 0 0 -742c0,-221 -89,-332 -267,-332 -94,0 -169,31 -225,93 -56,62 -84,154 -84,276l0 706 -408 0 0 -1406 390 0 0 162c52,-59 116,-105 192,-136 76,-31 159,-47 250,-47 99,0 189,20 269,59 80,39 145,96 193,171 58,-73 130,-130 218,-170 88,-40 184,-60 289,-60zm941 -512l408 0 0 1940 -408 0 0 -1940zm1467 1961c-150,0 -285,-31 -404,-93 -119,-62 -213,-148 -280,-258 -67,-110 -101,-234 -101,-374 0,-139 34,-264 101,-374 67,-110 160,-196 280,-258 119,-62 254,-93 404,-93 148,0 278,31 388,93 111,62 191,150 242,265l-316 170c-73,-129 -179,-193 -316,-193 -106,0 -194,35 -264,105 -70,70 -105,165 -105,285 0,120 35,215 105,285 70,70 158,105 264,105 139,0 245,-64 316,-193l316 173c-51,112 -131,199 -242,261 -111,63 -240,94 -388,94zm1516 0c-148,0 -281,-31 -399,-93 -118,-62 -210,-148 -276,-258 -66,-110 -99,-234 -99,-374 0,-139 33,-264 99,-374 66,-110 158,-196 276,-258 118,-62 251,-93 399,-93 148,0 281,31 397,93 117,62 208,148 274,258 66,110 99,234 99,374 0,139 -33,264 -99,374 -66,110 -158,196 -274,258 -117,62 -249,93 -397,93zm0 -335c105,0 190,-35 257,-106 67,-71 101,-165 101,-284 0,-119 -34,-213 -101,-284 -67,-71 -153,-106 -257,-106 -105,0 -191,35 -259,106 -68,71 -102,165 -102,284 0,119 34,213 102,284 68,71 154,106 259,106zm1898 -1114c174,0 315,52 422,157 107,105 161,260 161,465l0 805 -408 0 0 -742c0,-112 -24,-195 -73,-250 -49,-55 -119,-82 -212,-82 -103,0 -185,32 -246,95 -61,64 -91,158 -91,284l0 695 -408 0 0 -1406 390 0 0 165c54,-59 121,-105 201,-137 80,-32 168,-48 264,-48zm847 1955c-143,0 -252,-26 -327,-78l110 -295c47,33 105,50 173,50 52,0 93,-17 123,-51 30,-34 44,-85 44,-153l0 -1406 408 0 0 1404c0,164 -47,293 -140,388 -93,95 -224,142 -391,142zm327 -2131c-75,0 -136,-22 -183,-65 -47,-44 -71,-98 -71,-162 0,-64 24,-119 71,-162 47,-44 108,-65 183,-65 75,0 136,21 183,63 47,42 71,94 71,157 0,68 -24,124 -71,169 -47,44 -108,67 -183,67zm1997 196l0 1406 -387 0 0 -167c-54,61 -119,108 -193,140 -75,32 -156,48 -243,48 -185,0 -331,-53 -439,-159 -108,-106 -162,-264 -162,-473l0 -795 408 0 0 735c0,227 95,340 285,340 98,0 176,-32 235,-95 59,-64 89,-158 89,-284l0 -695 408 0zm1830 0l0 1171c0,258 -67,450 -201,575 -134,125 -330,188 -588,188 -136,0 -265,-17 -387,-50 -122,-33 -223,-81 -303,-144l162 -293c59,49 134,88 225,116 91,29 181,43 272,43 141,0 245,-32 312,-95 67,-64 101,-160 101,-289l0 -60c-106,117 -254,175 -444,175 -129,0 -247,-28 -354,-85 -107,-57 -192,-136 -255,-239 -63,-103 -94,-221 -94,-356 0,-134 31,-253 94,-356 63,-103 148,-183 255,-239 107,-57 225,-85 354,-85 204,0 359,67 465,201l0 -180 387 0zm-771 1004c108,0 196,-32 265,-95 69,-64 103,-147 103,-250 0,-103 -34,-186 -103,-250 -69,-64 -157,-95 -265,-95 -108,0 -197,32 -267,95 -70,64 -105,147 -105,250 0,103 35,186 105,250 70,64 159,95 267,95z"/>
  <path class="fil10" d="M6228 24597c176,0 316,52 420,156 104,104 156,259 156,467l0 805 -408 0 0 -742c0,-112 -23,-195 -69,-250 -46,-55 -112,-82 -197,-82 -96,0 -172,31 -227,93 -56,62 -84,154 -84,276l0 706 -408 0 0 -742c0,-221 -89,-332 -267,-332 -94,0 -169,31 -225,93 -56,62 -84,154 -84,276l0 706 -408 0 0 -1406 390 0 0 162c52,-59 116,-105 192,-136 76,-31 159,-47 250,-47 99,0 189,20 269,59 80,39 145,96 193,171 58,-73 130,-130 218,-170 88,-40 184,-60 289,-60zm941 -512l408 0 0 1940 -408 0 0 -1940zm1467 1961c-150,0 -285,-31 -404,-93 -119,-62 -213,-148 -280,-258 -67,-110 -101,-234 -101,-374 0,-139 34,-264 101,-374 67,-110 160,-196 280,-258 119,-62 254,-93 404,-93 148,0 278,31 388,93 111,62 191,150 242,265l-316 170c-73,-129 -179,-193 -316,-193 -106,0 -194,35 -264,105 -70,70 -105,165 -105,285 0,120 35,215 105,285 70,70 158,105 264,105 139,0 245,-64 316,-193l316 173c-51,112 -131,199 -242,261 -111,63 -240,94 -388,94zm1516 0c-148,0 -281,-31 -399,-93 -118,-62 -210,-148 -276,-258 -66,-110 -99,-234 -99,-374 0,-139 33,-264 99,-374 66,-110 158,-196 276,-258 118,-62 251,-93 399,-93 148,0 281,31 397,93 117,62 208,148 274,258 66,110 99,234 99,374 0,139 -33,264 -99,374 -66,110 -158,196 -274,258 -117,62 -249,93 -397,93zm0 -335c105,0 190,-35 257,-106 67,-71 101,-165 101,-284 0,-119 -34,-213 -101,-284 -67,-71 -153,-106 -257,-106 -105,0 -191,35 -259,106 -68,71 -102,165 -102,284 0,119 34,213 102,284 68,71 154,106 259,106zm1898 -1114c174,0 315,52 422,157 107,105 161,260 161,465l0 805 -408 0 0 -742c0,-112 -24,-195 -73,-250 -49,-55 -119,-82 -212,-82 -103,0 -185,32 -246,95 -61,64 -91,158 -91,284l0 695 -408 0 0 -1406 390 0 0 165c54,-59 121,-105 201,-137 80,-32 168,-48 264,-48zm847 1955c-143,0 -252,-26 -327,-78l110 -295c47,33 105,50 173,50 52,0 93,-17 123,-51 30,-34 44,-85 44,-153l0 -1406 408 0 0 1404c0,164 -47,293 -140,388 -93,95 -224,142 -391,142zm327 -2131c-75,0 -136,-22 -183,-65 -47,-44 -71,-98 -71,-162 0,-64 24,-119 71,-162 47,-44 108,-65 183,-65 75,0 136,21 183,63 47,42 71,94 71,157 0,68 -24,124 -71,169 -47,44 -108,67 -183,67zm1997 196l0 1406 -387 0 0 -167c-54,61 -119,108 -193,140 -75,32 -156,48 -243,48 -185,0 -331,-53 -439,-159 -108,-106 -162,-264 -162,-473l0 -795 408 0 0 735c0,227 95,340 285,340 98,0 176,-32 235,-95 59,-64 89,-158 89,-284l0 -695 408 0zm1830 0l0 1171c0,258 -67,450 -201,575 -134,125 -330,188 -588,188 -136,0 -265,-17 -387,-50 -122,-33 -223,-81 -303,-144l162 -293c59,49 134,88 225,116 91,29 181,43 272,43 141,0 245,-32 312,-95 67,-64 101,-160 101,-289l0 -60c-106,117 -254,175 -444,175 -129,0 -247,-28 -354,-85 -107,-57 -192,-136 -255,-239 -63,-103 -94,-221 -94,-356 0,-134 31,-253 94,-356 63,-103 148,-183 255,-239 107,-57 225,-85 354,-85 204,0 359,67 465,201l0 -180 387 0zm-771 1004c108,0 196,-32 265,-95 69,-64 103,-147 103,-250 0,-103 -34,-186 -103,-250 -69,-64 -157,-95 -265,-95 -108,0 -197,32 -267,95 -70,64 -105,147 -105,250 0,103 35,186 105,250 70,64 159,95 267,95z"/>
 </g>
</svg>
