<?xml version="1.0" encoding="UTF-8"?>
<!DOCTYPE svg PUBLIC "-//W3C//DTD SVG 1.1//EN" "http://www.w3.org/Graphics/SVG/1.1/DTD/svg11.dtd">
<!-- Creator: CorelDRAW 2017 -->
<svg xmlns="http://www.w3.org/2000/svg" xml:space="preserve" width="210mm" height="297mm" version="1.1" style="shape-rendering:geometricPrecision; text-rendering:geometricPrecision; image-rendering:optimizeQuality; fill-rule:evenodd; clip-rule:evenodd"
viewBox="0 0 21000 29700"
 xmlns:xlink="http://www.w3.org/1999/xlink">
 <defs>
  <style type="text/css">
   <![CDATA[
    .str1 {stroke:#003399;stroke-width:16.93}
    .str0 {stroke:#1A1A1A;stroke-width:16.93}
    .str4 {stroke:#37496E;stroke-width:211.67}
    .str5 {stroke:#6699FF;stroke-width:211.67}
    .str6 {stroke:#6699FF;stroke-width:211.67}
    .str3 {stroke:white;stroke-width:211.67}
    .str2 {stroke:#6699FF;stroke-width:7.62}
    .fil4 {fill:none}
    .fil2 {fill:#003399}
    .fil1 {fill:#1A1A1A}
    .fil7 {fill:#333333}
    .fil0 {fill:#336699}
    .fil5 {fill:#37496E}
    .fil3 {fill:#6699FF}
    .fil6 {fill:white}
    .fil8 {fill:url(#id0)}
   ]]>
  </style>
  <radialGradient id="id0" gradientUnits="userSpaceOnUse" gradientTransform="matrix(0.0866566 1.08321 -1.03988 0.0902675 13748 -8185)" cx="10739" cy="3789" r="609" fx="10739" fy="3789">
   <stop offset="0" style="stop-opacity:1; stop-color:yellow"/>
   <stop offset="0.690196" style="stop-opacity:1; stop-color:#F8EE32"/>
   <stop offset="1" style="stop-opacity:1; stop-color:#F2DD64"/>
  </radialGradient>
 </defs>
 <g id="Camada_x0020_1">
  <metadata id="CorelCorpID_0Corel-Layer"/>
  <path class="fil0" d="M17960 14789l0 -3682 191 0c573,0 1042,469 1042,1042l0 1598c0,573 -469,1042 -1042,1042l-191 0z"/>
  <path class="fil0" d="M3518 14789l0 -3682 -191 0c-573,0 -1042,469 -1042,1042l0 1598c0,573 469,1042 1042,1042l191 0z"/>
  <rect class="fil1 str0" x="3518" y="12341" width="14442" height="10145" rx="3469" ry="2664"/>
  <rect class="fil2 str1" x="3518" y="8045" width="14442" height="9394" rx="3209" ry="2650"/>
  <path class="fil3 str2" d="M11304 13732c0,1450 1176,2626 2626,2626 1450,0 2626,-1176 2626,-2626 0,-1450 -1176,-2626 -2626,-2626 -1450,0 -2626,1176 -2626,2626zm2626 1313c-725,0 -1313,-588 -1313,-1313 0,-725 588,-1313 1313,-1313 725,0 1313,588 1313,1313 0,725 -588,1313 -1313,1313z"/>
  <path class="fil3 str2" d="M7460 16358c1450,0 2626,-1176 2626,-2626 0,-1450 -1176,-2626 -2626,-2626 -1450,0 -2626,1176 -2626,2626 0,1450 1176,2626 2626,2626zm1313 -2626c0,725 -588,1313 -1313,1313 -725,0 -1313,-588 -1313,-1313 0,-725 588,-1313 1313,-1313 725,0 1313,588 1313,1313z"/>
  <circle class="fil4 str3" cx="7460" cy="13732" r="2626"/>
  <circle class="fil5 str4" cx="7460" cy="13732" r="1313"/>
  <circle class="fil6 str5" cx="7460" cy="13732" r="656"/>
  <line class="fil4 str3" x1="10086" y1="13732" x2="11304" y2= "13732" />
  <circle class="fil4 str3" cx="13930" cy="13732" r="2626"/>
  <circle class="fil5 str4" cx="13930" cy="13732" r="1313"/>
  <circle class="fil6 str6" cx="13930" cy="13732" r="656"/>
  <path class="fil3 str2" d="M13273 13732c0,363 294,656 656,656 363,0 656,-294 656,-656 0,-363 -294,-656 -656,-656 -363,0 -656,294 -656,656z"/>
  <path class="fil3 str2" d="M8116 13732c0,-363 -294,-656 -656,-656 -363,0 -656,294 -656,656 0,363 294,656 656,656 363,0 656,-294 656,-656z"/>
  <path class="fil4 str3" d="M13691 18764c0,1324 -1322,2397 -2953,2397 -1565,0 -2845,-988 -2946,-2238 -4,-53 -6,-106 -6,-159"/>
  <polygon class="fil7" points="12708,8039 8769,8039 8769,7251 10476,7251 10476,3789 11001,3789 11001,7251 12708,7251 "/>
  <circle class="fil8" cx="10739" cy="3789" r="985"/>
 </g>
</svg>
