<?xml version="1.0" encoding="UTF-8"?>
<!DOCTYPE svg PUBLIC "-//W3C//DTD SVG 1.1//EN" "http://www.w3.org/Graphics/SVG/1.1/DTD/svg11.dtd">
<!-- Creator: CorelDRAW 2017 -->
<svg xmlns="http://www.w3.org/2000/svg" xml:space="preserve" width="297mm" height="210mm" version="1.1" style="shape-rendering:geometricPrecision; text-rendering:geometricPrecision; image-rendering:optimizeQuality; fill-rule:evenodd; clip-rule:evenodd"
viewBox="0 0 29700 21000"
 xmlns:xlink="http://www.w3.org/1999/xlink">
 <defs>
  <style type="text/css">
   <![CDATA[
    .str1 {stroke:#003399;stroke-width:16.93}
    .str0 {stroke:#1A1A1A;stroke-width:16.93}
    .str4 {stroke:#37496E;stroke-width:211.67}
    .str5 {stroke:#6699FF;stroke-width:211.67}
    .str6 {stroke:#6699FF;stroke-width:211.67}
    .str3 {stroke:white;stroke-width:211.67}
    .str2 {stroke:#6699FF;stroke-width:7.62}
    .fil4 {fill:none}
    .fil2 {fill:#003399}
    .fil1 {fill:#1A1A1A}
    .fil7 {fill:#333333}
    .fil0 {fill:#336699}
    .fil5 {fill:#37496E}
    .fil3 {fill:#6699FF}
    .fil6 {fill:white}
    .fil9 {fill:#1A1A1A;fill-rule:nonzero}
    .fil8 {fill:url(#id0)}
   ]]>
  </style>
  <radialGradient id="id0" gradientUnits="userSpaceOnUse" gradientTransform="matrix(0.0866565 1.08321 -1.03988 0.0902674 11626 -1945)" cx="6437" cy="5526" r="609" fx="6437" fy="5526">
   <stop offset="0" style="stop-opacity:1; stop-color:yellow"/>
   <stop offset="0.690196" style="stop-opacity:1; stop-color:#F8EE32"/>
   <stop offset="1" style="stop-opacity:1; stop-color:#F2DD64"/>
  </radialGradient>
 </defs>
 <g id="Camada_x0020_1">
  <metadata id="CorelCorpID_0Corel-Layer"/>
  <path class="fil0" d="M9649 10419l0 -1638 85 0c255,0 463,209 463,463l0 711c0,255 -209,463 -463,463l-85 0z"/>
  <path class="fil0" d="M3226 10419l0 -1638 -85 0c-255,0 -463,209 -463,463l0 711c0,255 209,463 463,463l85 0z"/>
  <rect class="fil1 str0" x="3226" y="9330" width="6423" height="4512" rx="1543" ry="1185"/>
  <rect class="fil2 str1" x="3226" y="7419" width="6423" height="4178" rx="1427" ry="1178"/>
  <path class="fil3 str2" d="M6689 9949c0,645 523,1168 1168,1168 645,0 1168,-523 1168,-1168 0,-645 -523,-1168 -1168,-1168 -645,0 -1168,523 -1168,1168zm1168 584c-322,0 -584,-261 -584,-584 0,-322 261,-584 584,-584 322,0 584,261 584,584 0,322 -261,584 -584,584z"/>
  <path class="fil3 str2" d="M4979 11117c645,0 1168,-523 1168,-1168 0,-645 -523,-1168 -1168,-1168 -645,0 -1168,523 -1168,1168 0,645 523,1168 1168,1168zm584 -1168c0,322 -261,584 -584,584 -322,0 -584,-261 -584,-584 0,-322 261,-584 584,-584 322,0 584,261 584,584z"/>
  <circle class="fil4 str3" cx="4979" cy="9949" r="1168"/>
  <circle class="fil5 str4" cx="4979" cy="9949" r="584"/>
  <circle class="fil6 str5" cx="4979" cy="9949" r="292"/>
  <line class="fil4 str3" x1="6147" y1="9949" x2="6689" y2= "9949" />
  <circle class="fil4 str3" cx="7856" cy="9949" r="1168"/>
  <circle class="fil5 str4" cx="7856" cy="9949" r="584"/>
  <circle class="fil6 str6" cx="7856" cy="9949" r="292"/>
  <path class="fil3 str2" d="M7564 9949c0,161 131,292 292,292 161,0 292,-131 292,-292 0,-161 -131,-292 -292,-292 -161,0 -292,131 -292,292z"/>
  <path class="fil3 str2" d="M5271 9949c0,-161 -131,-292 -292,-292 -161,0 -292,131 -292,292 0,161 131,292 292,292 161,0 292,-131 292,-292z"/>
  <path class="fil4 str3" d="M7750 12186c0,589 -588,1066 -1313,1066 -696,0 -1265,-439 -1310,-995 -2,-23 -3,-47 -3,-71"/>
  <polygon class="fil7" points="7313,7416 5561,7416 5561,7066 6320,7066 6320,5526 6554,5526 6554,7066 7313,7066 "/>
  <circle class="fil8" cx="6437" cy="5526" r="438"/>
  <path class="fil9" d="M13736 9648c238,0 427,70 567,210 140,140 210,351 210,631l0 1089 -552 0 0 -1004c0,-151 -31,-263 -94,-338 -62,-74 -151,-111 -267,-111 -130,0 -232,42 -308,126 -75,84 -113,208 -113,373l0 955 -552 0 0 -1004c0,-299 -120,-449 -361,-449 -127,0 -229,42 -304,126 -75,84 -113,208 -113,373l0 955 -552 0 0 -1902 527 0 0 219c71,-80 157,-141 260,-184 103,-42 215,-64 338,-64 134,0 256,27 364,80 108,53 196,130 262,232 78,-99 176,-176 295,-230 119,-54 249,-81 391,-81zm1273 -693l552 0 0 2623 -552 0 0 -2623zm1983 2652c-203,0 -385,-42 -546,-126 -161,-84 -288,-200 -378,-348 -91,-148 -136,-317 -136,-506 0,-189 45,-357 136,-506 91,-148 217,-265 378,-348 161,-84 344,-126 546,-126 200,0 375,42 525,126 150,84 259,203 327,359l-428 230c-99,-174 -242,-262 -428,-262 -144,0 -263,47 -357,141 -94,94 -141,223 -141,385 0,163 47,291 141,385 94,94 213,141 357,141 189,0 331,-87 428,-262l428 233c-68,151 -177,269 -327,354 -150,85 -325,127 -525,127zm2051 0c-200,0 -380,-42 -539,-126 -159,-84 -283,-200 -373,-348 -90,-148 -134,-317 -134,-506 0,-189 45,-357 134,-506 90,-148 214,-265 373,-348 159,-84 339,-126 539,-126 200,0 379,42 537,126 158,84 282,200 371,348 90,148 134,317 134,506 0,189 -45,357 -134,506 -90,148 -213,265 -371,348 -158,84 -337,126 -537,126zm0 -453c141,0 258,-48 348,-143 91,-95 136,-223 136,-384 0,-160 -45,-288 -136,-384 -91,-95 -207,-143 -348,-143 -141,0 -258,48 -350,143 -92,95 -138,223 -138,384 0,160 46,288 138,384 92,95 209,143 350,143zm2567 -1506c236,0 426,71 571,212 145,141 217,351 217,629l0 1089 -552 0 0 -1004c0,-151 -33,-263 -99,-338 -66,-74 -161,-111 -286,-111 -139,0 -250,43 -332,129 -82,86 -124,214 -124,384l0 940 -552 0 0 -1902 527 0 0 223c73,-80 164,-142 272,-186 108,-44 227,-65 357,-65zm1145 2644c-193,0 -341,-35 -442,-106l148 -400c64,45 141,67 233,67 71,0 126,-23 166,-69 40,-46 60,-115 60,-207l0 -1902 552 0 0 1898c0,222 -63,397 -189,525 -126,128 -302,193 -529,193zm442 -2881c-101,0 -184,-29 -247,-88 -64,-59 -95,-132 -95,-219 0,-87 32,-160 95,-219 64,-59 146,-88 247,-88 101,0 184,28 247,85 64,57 95,127 95,212 0,92 -32,168 -95,228 -64,60 -146,90 -247,90zm2701 265l0 1902 -523 0 0 -226c-73,83 -160,146 -262,189 -101,44 -211,65 -329,65 -250,0 -448,-72 -594,-216 -146,-144 -219,-357 -219,-640l0 -1075 552 0 0 993c0,306 128,460 385,460 132,0 238,-43 318,-129 80,-86 120,-214 120,-384l0 -940 552 0zm2475 0l0 1584c0,349 -91,608 -272,778 -181,170 -447,255 -795,255 -184,0 -358,-22 -523,-67 -165,-45 -302,-110 -410,-194l219 -396c80,66 181,118 304,157 123,39 245,58 368,58 191,0 332,-43 422,-129 91,-86 136,-216 136,-391l0 -81c-144,158 -344,237 -601,237 -174,0 -334,-38 -479,-115 -145,-77 -260,-184 -345,-324 -85,-139 -127,-299 -127,-481 0,-181 42,-342 127,-481 85,-139 200,-247 345,-323 145,-77 305,-115 479,-115 276,0 486,91 629,272l0 -244 523 0zm-1043 1358c146,0 266,-43 359,-129 93,-86 140,-199 140,-338 0,-139 -47,-252 -140,-338 -93,-86 -213,-129 -359,-129 -146,0 -266,43 -361,129 -94,86 -141,199 -141,338 0,139 47,252 141,338 94,86 214,129 361,129z"/>
 </g>
</svg>
